<svg width="1108" height="508" viewBox="0 0 1108 508" fill="none" xmlns="http://www.w3.org/2000/svg">
<g clip-path="url(#clip0_3_1385)">
<path d="M780.992 476.09L772.482 438.406H725.911L717.402 476.09H670.521L720.96 269.135H779.909L830.038 476.09H781.146H780.992ZM749.893 314.233H748.655L731.017 402.266H766.448L749.738 314.233H749.893Z" fill="black"/>
<path d="M847.977 476.09V269.135H895.476V432.846H950.866V476.09H847.977Z" fill="black"/>
<mask id="mask0_3_1385" style="mask-type:luminance" maskUnits="userSpaceOnUse" x="-1287" y="-917" width="3899" height="2224">
<path d="M2611.95 -917H-1287V1307H2611.95V-917Z" fill="white"/>
</mask>
<g mask="url(#mask0_3_1385)">
<path d="M316.058 242.879L288.363 160.406H274.593V242.879H229.415V35.9238H295.79C315.904 35.9238 331.376 41.1749 342.515 51.5227C353.655 61.8705 359.225 77.4694 359.225 98.165C359.225 105.733 358.297 112.528 356.595 118.706C354.893 124.884 352.572 129.826 349.787 134.15C347.002 138.475 343.753 141.873 340.349 144.653C336.791 147.433 333.387 149.286 330.138 150.522L365.414 242.879H316.058ZM313.273 100.791C313.273 95.5394 312.5 91.2149 311.107 87.9716C309.56 84.7283 307.703 81.9482 305.383 80.0949C303.062 78.2416 300.432 76.8516 297.647 76.0794C294.862 75.4616 292.077 74.9983 289.292 74.9983H274.593V127.355H288.363C295.016 127.355 300.741 125.193 305.847 121.023C310.798 116.853 313.273 110.057 313.273 100.636" fill="black"/>
<path d="M532.813 138.785C532.813 155.156 530.956 170.137 527.243 183.729C523.53 197.32 518.269 208.749 511.462 218.324C504.654 227.9 496.299 235.313 486.397 240.564C476.495 245.815 465.51 248.441 453.132 248.441C440.755 248.441 429.769 245.815 419.867 240.564C409.965 235.313 401.61 227.9 394.803 218.324C387.995 208.749 382.734 197.165 379.021 183.729C375.308 170.137 373.451 155.156 373.451 138.785C373.451 122.414 375.308 107.587 378.866 94.1508C382.425 80.8686 387.685 69.4396 394.493 60.0185C401.301 50.5974 409.656 43.3386 419.558 38.0875C429.46 32.9908 440.6 30.3652 453.132 30.3652C465.664 30.3652 476.495 32.9908 486.397 38.0875C496.299 43.1841 504.654 50.5974 511.462 60.0185C518.269 69.4396 523.53 80.8686 527.243 94.1508C530.956 107.433 532.813 122.414 532.813 138.785ZM484.85 138.785C484.85 129.827 484.231 121.487 482.838 113.765C481.446 106.043 479.435 99.4019 476.804 93.6875C474.174 87.973 470.925 83.6486 467.057 80.4053C463.189 77.1619 458.547 75.6174 453.287 75.6174C448.026 75.6174 443.385 77.1619 439.362 80.4053C435.339 83.6486 432.09 87.973 429.46 93.6875C426.83 99.4019 424.818 106.043 423.58 113.765C422.343 121.487 421.724 129.827 421.724 138.785C421.724 147.743 422.343 156.083 423.58 163.96C424.818 171.682 426.83 178.477 429.46 184.192C432.09 189.906 435.494 194.385 439.362 197.629C443.385 200.872 448.026 202.571 453.287 202.571C458.547 202.571 463.189 200.872 467.057 197.629C470.925 194.385 474.174 189.906 476.804 184.192C479.435 178.477 481.446 171.836 482.838 163.96C484.231 156.083 484.85 147.743 484.85 138.785Z" fill="black"/>
<path d="M688.158 198.399C685.527 208.284 681.35 217.087 675.625 224.501C669.901 231.914 662.629 237.783 653.655 242.107C644.681 246.432 633.851 248.594 621.164 248.594C608.477 248.594 597.801 246.432 588.982 242.107C580.163 237.783 573.046 231.914 567.476 224.501C561.906 217.087 557.883 208.438 555.408 198.399C552.932 188.515 551.694 177.704 551.694 166.275V35.9238H598.884V162.259C598.884 168.128 599.193 173.534 599.967 178.631C600.586 183.727 601.824 188.052 603.68 191.604C605.382 195.156 607.703 198.09 610.643 200.253C613.582 202.415 617.45 203.496 622.092 203.496C626.734 203.496 630.602 202.415 633.541 200.253C636.481 198.09 638.802 195.156 640.504 191.604C642.206 188.052 643.443 183.727 644.217 178.631C644.836 173.534 645.3 168.128 645.3 162.259V35.9238H692.18V166.275C692.18 177.704 690.788 188.515 688.158 198.399Z" fill="black"/>
<path d="M790.888 75.616V242.879H744.936V75.616H706.875V35.9238H828.949V75.616H790.888Z" fill="black"/>
<path d="M847.056 242.879V35.9238H947.315V77.1605H891.925V117.779H942.828V156.39H891.925V200.716H950.718V242.879H847.056Z" fill="black"/>
<path d="M84.578 234.914C81.1505 230.171 83.2597 227.8 88.2691 228.327C97.497 228.591 120.997 228.064 129.961 227.01C140.244 208.566 149.735 193.021 155.272 185.644C158.172 181.428 161.6 181.692 163.181 185.644C166.873 195.129 166.873 205.932 158.699 223.321C191.648 223.058 196.658 229.118 199.558 233.333C201.931 237.285 200.612 239.657 195.603 239.657C188.22 238.603 157.909 239.657 149.472 240.974C136.553 263.37 52.7643 393.594 40.1089 421.523C29.0355 446.026 32.7266 466.578 46.7003 467.368C61.7285 468.158 80.7114 444.182 93.1031 419.151C95.2123 415.199 98.9036 414.409 100.222 419.151C101.804 424.421 100.222 430.481 96.7942 438.122C92.3121 447.87 70.4288 477.117 43.5361 476.063C21.3893 475.272 3.72468 450.769 19.8075 412.301C26.9262 395.702 105.442 269.693 119.679 243.345C94.3333 243.345 86.6875 238.339 84.051 234.651" fill="black"/>
<path d="M191.085 403.481C183.959 432.099 163.112 466.016 138.305 474.231C126.166 478.205 109.541 476.881 96.0822 459.392C81.304 439.783 86.318 410.636 101.36 383.872C114.027 361.084 134.611 341.476 154.667 340.151C164.959 339.356 170.765 342.535 177.362 351.545C185.015 361.879 195.043 364.264 193.196 388.377C192.932 391.027 192.932 393.412 192.404 396.062C194.515 396.062 196.363 395.531 199.002 395.531C201.377 395.531 201.377 397.122 200.057 398.976C197.682 401.626 194.251 402.951 191.085 403.481ZM162.584 395.002C155.459 389.702 147.542 377.778 147.278 365.324C138.306 373.008 128.541 384.137 121.416 396.856C107.43 422.295 102.416 453.297 111.124 460.717C120.36 468.401 140.944 456.742 157.306 425.739C162.32 416.2 166.278 406.926 168.917 398.976C166.542 397.916 164.431 396.592 162.584 395.002ZM173.932 365.059C172.348 354.195 165.487 356.315 163.903 366.119C162.32 375.128 166.015 384.932 171.292 389.967C173.931 379.633 174.987 371.153 173.932 365.059Z" fill="black"/>
<path d="M316.058 476.09L288.363 393.617H274.593V476.09H229.415V269.135H295.79C315.904 269.135 331.376 274.386 342.515 284.734C353.655 295.081 359.225 310.68 359.225 331.376C359.225 338.944 358.297 345.739 356.595 351.917C354.893 358.095 352.572 363.037 349.787 367.361C347.002 371.686 343.753 375.238 340.349 377.864C336.791 380.644 333.387 382.497 330.138 383.733L365.414 476.09H316.058ZM313.273 334.001C313.273 328.75 312.5 324.426 311.107 321.182C309.56 317.939 307.703 315.314 305.383 313.306C303.062 311.298 300.432 310.063 297.647 309.29C294.862 308.673 292.077 308.209 289.292 308.209H274.593V360.566H288.363C295.016 360.566 300.741 358.404 305.847 354.234C310.798 350.064 313.273 343.268 313.273 333.847" fill="black"/>
<path d="M393.88 476.09V269.135H493.984V310.371H438.595V350.99H489.652V389.601H438.595V434.081H497.543V476.09H393.88Z" fill="black"/>
<path d="M638.023 473.615C628.895 479.02 617.136 481.646 602.902 481.646C590.834 481.646 579.848 479.02 569.946 473.615C560.044 468.209 551.689 460.796 544.572 451.066C537.455 441.49 532.04 429.907 528.172 416.625C524.304 403.342 522.292 388.67 522.292 372.608C522.292 356.546 524.304 341.565 528.172 328.128C532.04 314.691 537.61 303.262 544.572 293.687C551.535 284.111 560.044 276.698 569.946 271.447C579.848 266.196 590.834 263.57 602.902 263.57C616.672 263.57 628.276 266.041 637.559 270.984C646.842 275.926 654.269 282.104 659.993 289.517L634.774 323.495C631.215 318.861 627.348 315.155 622.861 312.375C618.528 309.595 612.959 308.359 606.306 308.359C600.117 308.359 594.702 310.058 590.06 313.301C585.418 316.545 581.55 321.178 578.301 326.893C575.052 332.607 572.731 339.403 571.184 347.434C569.637 355.465 568.863 363.805 568.863 372.763C568.863 381.72 569.637 390.06 571.184 397.937C572.731 405.814 575.207 412.609 578.301 418.478C581.396 424.347 585.418 428.826 590.215 432.224C594.856 435.467 600.426 437.166 606.615 437.166C612.804 437.166 618.374 435.621 623.015 432.532C627.657 429.444 631.37 425.737 634.155 421.413L660.148 453.846C654.423 461.877 646.997 468.518 637.869 473.924" fill="black"/>
<path d="M977.789 476.089V268.979C977.789 268.979 984.442 269.288 998.367 269.288C1013.37 269.288 1025.29 268.361 1025.29 268.361V432.845H1080.68V476.089H977.943H977.789Z" fill="black"/>
</g>
</g>
<defs>
<clipPath id="clip0_3_1385">
<rect width="1108" height="508" fill="white"/>
</clipPath>
</defs>
</svg>
